<svg data-v-423bf9ae="" xmlns="http://www.w3.org/2000/svg" viewBox="0 0 2648 2913" class="iconLeft"><!----><!----><!----><g data-v-423bf9ae="" id="04709aa8-fa98-4005-b6ec-c98eaaeed5e7" fill="black" transform="matrix(4.7543578454821,0,0,4.7543578454821,2444.082547887221,1411.815467727557)"><path d="M0.59 7.91C0.59 11.31 2.95 12.87 5.54 12.87C7.32 12.87 9.10 11.90 9.14 11.59C9.31 10.29 9.37 9.70 9.37 9.66C9.37 9.56 9.32 9.52 9.16 9.51C9.10 9.51 9.04 9.49 9.00 9.49C8.89 9.49 8.83 9.53 8.81 9.70L8.62 11.33C8.61 11.45 7.50 12.24 5.94 12.24C3.81 12.24 2.10 10.29 2.10 7.94C2.10 5.42 3.53 3.54 5.53 3.54C7.38 3.54 8.72 5.01 8.72 5.17C8.72 5.29 8.67 6.40 8.67 6.45C8.67 6.59 8.71 6.64 8.97 6.64C9.17 6.64 9.24 6.62 9.24 6.44C9.24 5.73 9.30 3.92 9.30 3.67C9.30 3.47 9.18 3.44 8.97 3.44C8.75 3.44 8.72 3.50 8.72 3.67L8.72 4.05C8.72 4.16 8.68 4.16 8.55 4.06C8.27 3.86 7.29 3.04 5.63 3.04C2.79 3.04 0.59 4.96 0.59 7.91ZM10.61 10.04C10.61 11.58 11.77 12.85 13.30 12.85C15.06 12.85 16.10 11.58 16.10 9.84C16.10 8.29 15.08 7.01 13.52 7.01C11.77 7.01 10.61 8.37 10.61 10.04ZM11.69 10.23C11.69 8.69 12.08 7.46 13.36 7.46C14.49 7.46 15.01 8.74 15.01 9.74C15.01 10.92 14.77 12.40 13.30 12.40C12.25 12.40 11.69 11.27 11.69 10.23ZM16.86 10.04C16.86 11.58 18.02 12.85 19.54 12.85C21.31 12.85 22.34 11.58 22.34 9.84C22.34 8.29 21.32 7.01 19.77 7.01C18.02 7.01 16.86 8.37 16.86 10.04ZM17.93 10.23C17.93 8.69 18.33 7.46 19.60 7.46C20.73 7.46 21.25 8.74 21.25 9.74C21.25 10.92 21.01 12.40 19.54 12.40C18.49 12.40 17.93 11.27 17.93 10.23ZM22.81 3.51C22.81 3.64 22.82 3.65 22.96 3.65C23.09 3.65 23.72 3.61 23.76 3.61C23.86 3.61 23.87 6.80 23.87 9.30L23.87 12.00C23.87 12.21 23.87 12.21 23.76 12.21L23.14 12.21C22.97 12.21 22.97 12.29 22.97 12.43C22.97 12.59 22.97 12.67 23.16 12.67C23.31 12.67 23.87 12.64 24.33 12.64C24.74 12.64 25.06 12.67 25.33 12.67C25.49 12.67 25.51 12.57 25.51 12.47C25.51 12.29 25.51 12.21 25.33 12.21L24.88 12.21C24.85 12.21 24.85 11.77 24.85 11.30L24.85 10.12C24.85 9.95 24.88 9.94 24.96 9.94L25.13 9.94C25.26 9.94 25.27 9.95 25.44 10.16L26.98 12.07C27.05 12.17 27.08 12.21 26.94 12.21L26.75 12.21C26.59 12.21 26.57 12.29 26.57 12.43C26.57 12.59 26.57 12.67 26.75 12.67C26.95 12.67 27.40 12.64 27.75 12.64C28.10 12.64 28.52 12.67 28.71 12.67C28.91 12.67 28.91 12.59 28.91 12.43C28.91 12.26 28.91 12.21 28.71 12.21L28.55 12.21C28.43 12.21 28.41 12.21 28.27 12.04L26.15 9.59C26.04 9.45 26.01 9.48 26.15 9.31C26.45 8.96 27.54 7.60 27.66 7.60L28.11 7.60C28.28 7.60 28.29 7.52 28.29 7.38C28.29 7.21 28.25 7.14 28.13 7.14C27.92 7.14 27.62 7.17 27.26 7.17C26.89 7.17 26.53 7.14 26.39 7.14C26.21 7.14 26.19 7.24 26.19 7.38C26.19 7.52 26.19 7.60 26.38 7.60L26.71 7.60C26.85 7.60 26.91 7.62 26.81 7.76C26.49 8.29 26.11 8.82 25.72 9.34C25.62 9.48 25.52 9.63 25.34 9.63L25.03 9.63C24.86 9.63 24.85 9.62 24.85 9.49L25.00 3.25C25.00 3.08 25.02 3.02 24.89 3.02C24.81 3.02 23.51 3.12 22.97 3.16C22.82 3.18 22.81 3.25 22.81 3.36ZM29.53 12.49C29.53 12.64 29.72 12.64 29.82 12.64L33.05 12.64C33.22 12.64 33.24 12.67 33.24 12.81L33.24 15.41C33.24 15.55 33.32 15.64 33.43 15.64L34.06 15.58C34.24 15.57 34.33 15.51 34.33 15.39C34.33 15.32 34.24 13.65 34.20 12.80C34.19 12.64 34.24 12.64 34.36 12.64L35.13 12.64C35.29 12.64 35.29 12.64 35.29 12.50L35.29 11.94C35.29 11.80 35.25 11.80 35.15 11.80L34.34 11.80C34.17 11.80 34.17 11.80 34.17 11.59L34.17 7.45C34.17 7.18 34.10 7.04 33.95 7.04C33.73 7.04 32.69 8.27 32.58 8.40L30.72 10.64C30.38 11.03 29.53 12.10 29.53 12.49ZM30.58 11.44L33.01 8.50C33.19 8.29 33.24 8.20 33.24 8.54L33.24 11.56C33.24 11.79 33.24 11.80 33.01 11.80L30.66 11.80C30.25 11.80 30.38 11.68 30.58 11.44ZM36.16 7.60C36.16 7.66 36.20 7.67 36.27 7.67C36.33 7.67 36.92 7.66 36.96 7.66C37.06 7.66 37.09 8.05 37.09 8.69L37.09 10.89C37.09 11.83 37.30 12.80 38.65 12.80C39.69 12.80 40.88 12.15 40.91 12.15C40.95 12.15 40.92 12.87 41.01 12.87C41.06 12.87 42.20 12.70 42.67 12.63C42.85 12.60 42.85 12.59 42.85 12.38C42.85 12.29 42.85 12.19 42.77 12.19C42.73 12.19 42.18 12.28 42.15 12.28C41.97 12.28 41.93 12.19 41.93 11.49C41.93 10.63 41.94 7.28 41.94 7.28C41.94 7.20 41.96 7.15 41.80 7.15C41.73 7.15 40.89 7.20 40.18 7.22C40.05 7.22 40.01 7.25 40.00 7.35C39.98 7.39 39.97 7.56 39.97 7.60C39.97 7.64 40.03 7.64 40.08 7.64C40.12 7.64 40.67 7.62 40.78 7.62C40.87 7.62 40.89 9.87 40.89 10.18L40.89 11.83C40.89 11.93 40.14 12.01 39.66 12.01C38.84 12.01 38.15 11.86 38.15 11.12L38.15 7.31C38.15 7.22 38.15 7.18 38.07 7.18C38.00 7.18 36.78 7.22 36.47 7.24C36.30 7.25 36.26 7.24 36.22 7.36C36.19 7.43 36.16 7.55 36.16 7.60Z"></path></g><!----><g data-v-423bf9ae="" id="922be9b9-2b28-4f60-a111-0986145e4692" transform="matrix(5.688533528645833,0,0,5.688533528645833,-242.5785839477553,0.7513666662268861)" stroke="none" fill="black"><path d="M434.161 402.381l-1.594-.453c-23.093-6.217-30.904-12.154-41.185-16.076-36.451-13.891-45.951-23.904-48.373-28.639-.078-.156-.156-.344-.234-.531l-.219-31.842a186.21 186.21 0 0 0 5.125-7.219c22.655-10.984 25.717-28.311 21.218-42.654 4.499-13.686 7.093-28.029 7.093-42.591 0-6.538-.375-12.89-1.109-19.038h1.109v-65.191c34.873-6.288 61.324-36.786 61.324-73.472 0-41.231-33.419-74.659-74.65-74.659-20.906 0-39.779 8.593-53.326 22.428C295.779 8.601 276.904.016 256 .016c-18.28 0-35.029 6.577-48.013 17.483C195.02 6.593 178.286.016 160.006.016c-41.231 0-74.667 33.428-74.667 74.659 0 32.842 21.202 60.723 50.669 70.723v67.94h1.109a160.582 160.582 0 0 0-1.109 19.038c0 14.562 2.594 28.905 7.093 42.606-4.499 14.328-1.438 31.654 21.218 42.639a186.98 186.98 0 0 0 5.125 7.219l-.219 31.842a8.688 8.688 0 0 1-.234.531c-2.422 4.734-11.922 14.748-48.388 28.639-10.266 3.922-18.077 9.859-41.17 16.076l-1.594.453c-21.014 6.953-35.153 26.451-35.153 48.451v61.152h426.628v-61.152c0-22-14.138-41.498-35.153-48.451zm-243.61-45.543l.062-8.156c21.733 20.639 46.106 33.42 65.387 33.42s43.654-12.781 65.387-33.42l.062 8.156.031 4.531.719 1.594-66.105 43.168-65.777-44.324.203-.453.031-4.516zM256 308.84c10.375 11.359 27.982 18.938 45.403 18.938 1.781 0 3.562-.078 5.344-.25 2.171-.188 4.265-.406 6.296-.672-9.421 9.998-19.67 18.389-29.92 24.482-10.249 6.078-19.889 9.438-27.123 9.438-7.233 0-16.874-3.359-27.123-9.438-10.249-6.094-20.499-14.484-29.92-24.482 2.031.266 4.125.484 6.296.672 1.781.172 3.562.25 5.344.25 17.421-.001 35.029-7.579 45.403-18.938zm48.794-2.547c-1.109.109-2.25.156-3.391.156-14.812 0-28.764-8.311-32.498-16.076-.812-1.672-2.312-4.812 2.516-10.844.219-.281.422-.531.609-.75 2.906 1.547 7.452 4.922 10.405 7.109 10.531 7.812 23.64 17.529 40.576 17.529h.5c-5.109 1.173-11.281 2.204-18.717 2.876zm-61.699-15.92c-1.828 3.797-6.047 7.688-11.577 10.686-6.406 3.469-13.827 5.391-20.921 5.391a34.84 34.84 0 0 1-3.391-.156c-7.437-.672-13.608-1.703-18.718-2.875h.5c16.937 0 30.046-9.717 40.576-17.529 2.953-2.188 7.499-5.562 10.405-7.109.188.219.391.469.609.75 4.829 6.03 3.329 9.17 2.517 10.842zM106.682 74.675c0-29.404 23.92-53.325 53.324-53.325a53.232 53.232 0 0 1 33.764 12.062c-7.858 11.819-12.437 26.006-12.437 41.263 0 5.891 4.781 10.671 10.671 10.671 5.891 0 10.672-4.78 10.672-10.671 0-29.404 23.92-53.325 53.324-53.325s53.324 23.921 53.324 53.325c0 5.891 4.781 10.671 10.672 10.671s10.672-4.78 10.672-10.671v-.055c-.016-12.491-3.094-24.264-8.531-34.607a54.084 54.084 0 0 1 5.453-5.507 53.253 53.253 0 0 1 35.076-13.156c29.404 0 53.324 23.921 53.324 53.325 0 12.577-4.453 24.788-12.546 34.373-8.015 9.491-19.108 15.921-31.233 18.108l-17.545 3.164v61.683H157.334V130.109l-14.468-4.914c-21.654-7.343-36.184-27.646-36.184-50.52zm246.703 138.663a140.175 140.175 0 0 1 1.281 19.038c0 6.664-.672 13.46-1.984 20.312-2.469-1.523-4.875-2.367-7-2.367h-.234c-14.451.438-21.404 15.438-21.404 15.438a21.225 21.225 0 0 1 6.234-.961c9.967 0 16.061 7.67 3.468 14.467-3.671 1.984-7.249 2.828-10.733 2.828-19.108 0-35.451-25.35-52.091-25.35-4.921 0-9.874 2.227-14.921 7.984-5.046-5.758-9.999-7.984-14.921-7.984-16.64 0-32.982 25.35-52.091 25.35-3.483 0-7.062-.844-10.749-2.828-12.577-6.797-6.483-14.467 3.484-14.467 1.969 0 4.078.297 6.234.961 0 0-6.953-15-21.405-15.438h-.234c-2.125 0-4.531.844-7 2.367-1.312-6.844-1.984-13.647-1.984-20.312 0-6.522.438-12.882 1.281-19.038h194.769zM64.012 450.832c0-12.688 8.109-23.936 20.202-28.092l.953-.281c17.624-4.75 27.764-9.594 35.17-13.141 3.047-1.453 5.468-2.609 7.874-3.531 13.39-5.109 23.749-9.889 31.795-14.311v99.166H64.012v-39.81zm117.321 39.811v-109.15l74.573 50.246 74.762-48.824v107.729H181.333zm266.655 0h-95.994v-99.166c8.047 4.422 18.405 9.201 31.811 14.326 2.391.906 4.812 2.062 7.859 3.516 7.405 3.547 17.545 8.391 35.17 13.156l.953.266c12.092 4.156 20.201 15.404 20.201 28.092v39.81z"></path><path d="M224.002 426.646c-5.89 0-10.671 4.779-10.671 10.67s4.781 10.672 10.671 10.672c5.891 0 10.672-4.781 10.672-10.672s-4.781-10.67-10.672-10.67zM224.002 469.314c-5.89 0-10.671 4.781-10.671 10.672s4.781 10.656 10.671 10.656c5.891 0 10.672-4.766 10.672-10.656s-4.781-10.672-10.672-10.672zM287.998 447.988c5.891 0 10.672-4.781 10.672-10.672s-4.781-10.67-10.672-10.67-10.672 4.779-10.672 10.67 4.781 10.672 10.672 10.672zM287.998 469.314c-5.891 0-10.672 4.781-10.672 10.672s4.781 10.656 10.672 10.656 10.672-4.766 10.672-10.656-4.781-10.672-10.672-10.672z"></path></g><!----></svg>