<svg data-v-423bf9ae="" xmlns="http://www.w3.org/2000/svg" viewBox="0 0 200.91915457004177 60" class="font"><!----><!----><!----><g data-v-423bf9ae="" id="66bdbb9a-aff4-404d-8b7b-f9f6337a74a9" fill="white" transform="matrix(4.7543578454821,0,0,4.7543578454821,-2.8050711313336194,-14.358160125836605)"><path d="M0.59 7.91C0.59 11.31 2.95 12.87 5.54 12.87C7.32 12.87 9.10 11.90 9.14 11.59C9.31 10.29 9.37 9.70 9.37 9.66C9.37 9.56 9.32 9.52 9.16 9.51C9.10 9.51 9.04 9.49 9.00 9.49C8.89 9.49 8.83 9.53 8.81 9.70L8.62 11.33C8.61 11.45 7.50 12.24 5.94 12.24C3.81 12.24 2.10 10.29 2.10 7.94C2.10 5.42 3.53 3.54 5.53 3.54C7.38 3.54 8.72 5.01 8.72 5.17C8.72 5.29 8.67 6.40 8.67 6.45C8.67 6.59 8.71 6.64 8.97 6.64C9.17 6.64 9.24 6.62 9.24 6.44C9.24 5.73 9.30 3.92 9.30 3.67C9.30 3.47 9.18 3.44 8.97 3.44C8.75 3.44 8.72 3.50 8.72 3.67L8.72 4.05C8.72 4.16 8.68 4.16 8.55 4.06C8.27 3.86 7.29 3.04 5.63 3.04C2.79 3.04 0.59 4.96 0.59 7.91ZM10.61 10.04C10.61 11.58 11.77 12.85 13.30 12.85C15.06 12.85 16.10 11.58 16.10 9.84C16.10 8.29 15.08 7.01 13.52 7.01C11.77 7.01 10.61 8.37 10.61 10.04ZM11.69 10.23C11.69 8.69 12.08 7.46 13.36 7.46C14.49 7.46 15.01 8.74 15.01 9.74C15.01 10.92 14.77 12.40 13.30 12.40C12.25 12.40 11.69 11.27 11.69 10.23ZM16.86 10.04C16.86 11.58 18.02 12.85 19.54 12.85C21.31 12.85 22.34 11.58 22.34 9.84C22.34 8.29 21.32 7.01 19.77 7.01C18.02 7.01 16.86 8.37 16.86 10.04ZM17.93 10.23C17.93 8.69 18.33 7.46 19.60 7.46C20.73 7.46 21.25 8.74 21.25 9.74C21.25 10.92 21.01 12.40 19.54 12.40C18.49 12.40 17.93 11.27 17.93 10.23ZM22.81 3.51C22.81 3.64 22.82 3.65 22.96 3.65C23.09 3.65 23.72 3.61 23.76 3.61C23.86 3.61 23.87 6.80 23.87 9.30L23.87 12.00C23.87 12.21 23.87 12.21 23.76 12.21L23.14 12.21C22.97 12.21 22.97 12.29 22.97 12.43C22.97 12.59 22.97 12.67 23.16 12.67C23.31 12.67 23.87 12.64 24.33 12.64C24.74 12.64 25.06 12.67 25.33 12.67C25.49 12.67 25.51 12.57 25.51 12.47C25.51 12.29 25.51 12.21 25.33 12.21L24.88 12.21C24.85 12.21 24.85 11.77 24.85 11.30L24.85 10.12C24.85 9.95 24.88 9.94 24.96 9.94L25.13 9.94C25.26 9.94 25.27 9.95 25.44 10.16L26.98 12.07C27.05 12.17 27.08 12.21 26.94 12.21L26.75 12.21C26.59 12.21 26.57 12.29 26.57 12.43C26.57 12.59 26.57 12.67 26.75 12.67C26.95 12.67 27.40 12.64 27.75 12.64C28.10 12.64 28.52 12.67 28.71 12.67C28.91 12.67 28.91 12.59 28.91 12.43C28.91 12.26 28.91 12.21 28.71 12.21L28.55 12.21C28.43 12.21 28.41 12.21 28.27 12.04L26.15 9.59C26.04 9.45 26.01 9.48 26.15 9.31C26.45 8.96 27.54 7.60 27.66 7.60L28.11 7.60C28.28 7.60 28.29 7.52 28.29 7.38C28.29 7.21 28.25 7.14 28.13 7.14C27.92 7.14 27.62 7.17 27.26 7.17C26.89 7.17 26.53 7.14 26.39 7.14C26.21 7.14 26.19 7.24 26.19 7.38C26.19 7.52 26.19 7.60 26.38 7.60L26.71 7.60C26.85 7.60 26.91 7.62 26.81 7.76C26.49 8.29 26.11 8.82 25.72 9.34C25.62 9.48 25.52 9.63 25.34 9.63L25.03 9.63C24.86 9.63 24.85 9.62 24.85 9.49L25.00 3.25C25.00 3.08 25.02 3.02 24.89 3.02C24.81 3.02 23.51 3.12 22.97 3.16C22.82 3.18 22.81 3.25 22.81 3.36ZM29.53 12.49C29.53 12.64 29.72 12.64 29.82 12.64L33.05 12.64C33.22 12.64 33.24 12.67 33.24 12.81L33.24 15.41C33.24 15.55 33.32 15.64 33.43 15.64L34.06 15.58C34.24 15.57 34.33 15.51 34.33 15.39C34.33 15.32 34.24 13.65 34.20 12.80C34.19 12.64 34.24 12.64 34.36 12.64L35.13 12.64C35.29 12.64 35.29 12.64 35.29 12.50L35.29 11.94C35.29 11.80 35.25 11.80 35.15 11.80L34.34 11.80C34.17 11.80 34.17 11.80 34.17 11.59L34.17 7.45C34.17 7.18 34.10 7.04 33.95 7.04C33.73 7.04 32.69 8.27 32.58 8.40L30.72 10.64C30.38 11.03 29.53 12.10 29.53 12.49ZM30.58 11.44L33.01 8.50C33.19 8.29 33.24 8.20 33.24 8.54L33.24 11.56C33.24 11.79 33.24 11.80 33.01 11.80L30.66 11.80C30.25 11.80 30.38 11.68 30.58 11.44ZM36.16 7.60C36.16 7.66 36.20 7.67 36.27 7.67C36.33 7.67 36.92 7.66 36.96 7.66C37.06 7.66 37.09 8.05 37.09 8.69L37.09 10.89C37.09 11.83 37.30 12.80 38.65 12.80C39.69 12.80 40.88 12.15 40.91 12.15C40.95 12.15 40.92 12.87 41.01 12.87C41.06 12.87 42.20 12.70 42.67 12.63C42.85 12.60 42.85 12.59 42.85 12.38C42.85 12.29 42.85 12.19 42.77 12.19C42.73 12.19 42.18 12.28 42.15 12.28C41.97 12.28 41.93 12.19 41.93 11.49C41.93 10.63 41.94 7.28 41.94 7.28C41.94 7.20 41.96 7.15 41.80 7.15C41.73 7.15 40.89 7.20 40.18 7.22C40.05 7.22 40.01 7.25 40.00 7.35C39.98 7.39 39.97 7.56 39.97 7.60C39.97 7.64 40.03 7.64 40.08 7.64C40.12 7.64 40.67 7.62 40.78 7.62C40.87 7.62 40.89 9.87 40.89 10.18L40.89 11.83C40.89 11.93 40.14 12.01 39.66 12.01C38.84 12.01 38.15 11.86 38.15 11.12L38.15 7.31C38.15 7.22 38.15 7.18 38.07 7.18C38.00 7.18 36.78 7.22 36.47 7.24C36.30 7.25 36.26 7.24 36.22 7.36C36.19 7.43 36.16 7.55 36.16 7.60Z"></path></g><!----><!----></svg>